<svg version="1.1" id="_x32_" xmlns="http://www.w3.org/2000/svg" x="0" y="0" width="512" height="512" style="width:512px;height:512px" xml:space="preserve" opacity="1"><style>.st0{fill:#4b4b4b}</style><path class="st0" d="M122.922 366.016h-.016l-.016.016.032-.016zm245.422-94.922h-.063.063z" fill="#4b4b4b"/><path class="st0" d="M466.984 42.906C440.516 16.406 403.844 0 363.453 0c-40.422 0-77.094 16.406-103.547 42.906-26.484 26.453-42.891 63.125-42.891 103.531 0 3.797-.047 11.531-.094 18.281-.016 3.375-.031 6.531-.047 8.813-.016 2.313-.031 3.75-.031 3.75v.234l2.609 74.609c-1.969-1.984-5-5-8.688-8.625-6.219-6.094-14.203-13.75-21.844-20.594a37.208 37.208 0 00-1.594-2.281c-1.656-2.25-3.563-4.469-5.531-6.641-2.938-3.281-6.016-6.453-8.297-8.828-.047-.047-.094-.078-.141-.125.891-5.266 1.484-10.5 1.484-15.688 0-3.875-.328-7.75-1.25-11.594-.688-2.891-1.703-5.75-3.172-8.469-2.188-4.094-5.469-7.844-9.578-10.656-4.125-2.813-8.953-4.688-14.297-5.75a23.656 23.656 0 00-4.672-.469c-2.703 0-5.297.438-7.703 1.172-4.234 1.266-7.969 3.297-11.391 5.734-5.078 3.656-9.469 8.188-13.078 13.094-1.797 2.438-3.406 4.969-4.75 7.594a46.388 46.388 0 00-2.531 5.813c-10.172 2.219-19.156 5.953-26.969 10.813-7.281 4.5-13.563 9.891-19.078 15.719-8.281 8.75-14.922 18.469-20.922 27.969-5.484 8.688-10.438 17.172-15.469 24.781-.734.406-1.563.875-2.438 1.453-3 1.922-6.766 4.875-9.922 9.484-1.578 2.297-2.969 5-3.953 8.078s-1.547 6.484-1.547 10.125c0 5.484 1.25 11.422 3.875 17.734 1.672 4.031 3.641 7.719 5.938 11.063 4.031 5.875 9.219 10.625 15.156 14 4.438 2.531 9.25 4.344 14.344 5.656 7.641 2 15.938 2.938 25.25 3.516 9.328.578 19.703.766 31.469 1.047 1.844.031 5.109.25 8.719.484.984.047 2.031.109 3.063.172l-3.406 3.938h-.016a2.938 2.938 0 01-1.734 1l-.422.063-27.734 7.344-.125.047a33.51 33.51 0 00-7.156 3.063c-3.578 2.047-7.234 4.859-10.281 8.891a27.383 27.383 0 00-3.844 6.969 25.185 25.185 0 00-1.547 8.656c0 2.125.266 4.281.797 6.438.953 3.672 2.703 6.438 4.625 8.844 2.922 3.563 6.469 6.344 10.406 8.531 1.953 1.094 4.031 2 6.266 2.688s4.609 1.156 7.266 1.172c.266 0 .5-.016.75-.047l28.875.406a56.75 56.75 0 00-.641 8.594c0 5.828.828 11.594 2.188 17.5.594 2.5 1.297 5.047 2.063 7.609-2.656 1.016-5.141 2.125-7.422 3.328-3.891 2.063-7.266 4.438-10.109 7.031-4.266 3.906-7.313 8.406-9.141 12.969-1.859 4.563-2.516 9.094-2.516 13.125 0 5.922 1.344 10.859 2.641 14.422 1.297 3.547 2.578 5.781 2.844 6.203L95.703 512h164.016l3.063-5.719c.203-.406 2.563-4.859 5.547-12.984 11.328-2.859 22.75-8.438 33.875-16.219 19.875-13.953 38.844-35.016 53.031-61.359 14.172-26.344 23.516-58.031 23.516-92.938 0-9.938-.781-20.125-2.391-30.5a110.89 110.89 0 005.641-.594h.109l.719-.094c35.875-4.75 67.625-22.484 90.406-48.281 22.781-25.781 36.641-59.766 36.641-96.875-.001-40.406-16.407-77.078-42.892-103.531zM457 228.969c-19.453 22.031-46.5 37.109-77.016 41.141-2.594.359-5.203.609-7.844.797h-.265s-.203.031-.594.031h.016c-.984.063-2.016.125-3.078.172l.063-.016c-.484.016-.781.031-.922.031h-.109a77.118 77.118 0 01-3.797.078c-.797 0-1.641-.016-2.484-.047-11.875-1.844-21.625-7.375-29.375-14.5-7.734-7.125-13.406-16.656-16.484-28.281a50.762 50.762 0 01-1.703-13.016c0-7.516 1.656-14.859 4.609-21.703 4.391-10.281 11.75-19.313 20.453-25.688 8.688-6.375 18.609-10 28.125-9.969 4.75 0 9.422.875 13.984 2.781l5.859-14a51.608 51.608 0 00-19.844-3.953c-8.891.016-17.594 2.219-25.609 6.031-12.031 5.734-22.594 15.078-30.266 26.578s-12.469 25.313-12.469 39.922c0 5.578.703 11.234 2.203 16.891 3.719 14.125 10.875 26.344 20.875 35.563 7.594 7 16.828 12.203 27.219 15.313 4.031.703 5.031 4.516 5.734 8.406 1.906 10.703 2.797 21.125 2.797 31.25 0 20.688-3.688 40.094-9.875 57.688-9.297 26.406-24.313 48.781-40.75 64.906-8.219 8.063-16.766 14.563-25.031 19.281-8.219 4.688-16.156 7.563-22.969 8.594l-6.578 1-2.078 6.344a138.44 138.44 0 01-3.563 9.75H109.266c-.313-1.375-.547-2.828-.531-4.281 0-1.516.219-3 .719-4.438a12.89 12.89 0 011.766-3.297c1.266-1.703 3.234-3.641 6.609-5.609s8.141-3.922 14.703-5.531l11.688-2.813-4.031-11.344c-2.125-5.938-3.781-11.219-4.875-15.938s-1.641-8.844-1.641-12.594c.031-4 .625-7.563 1.922-11.313a195.496 195.496 0 009.188-1.781c3.953-.875 7.719-1.844 11.25-3.094 1.75-.656 3.469-1.391 5.172-2.281 1.672-.906 3.359-2 5-3.484 4.391-4.047 4.688-10.891.641-15.297s-10.844-4.688-15.25-.688c0 0-.344.234-.969.531-1.109.563-3.031 1.25-5.406 1.906-3.563 1-8.172 1.938-13.141 2.828-4.641.828-9.609 1.625-14.5 2.484l-34.094-.469-.438.031h-.016c-.094 0-.875-.125-1.813-.531-1.438-.594-3.25-1.766-4.422-2.906-.594-.563-1.031-1.094-1.234-1.406l-.094-.188a5.001 5.001 0 01-.141-.969c.016-.563.125-1 .406-1.609.422-.875 1.469-2.109 2.875-3.141 1.359-1.031 3.047-1.781 3.875-2l27-7.156a24.677 24.677 0 0013.422-7.953l16.172-18.641L135.609 323l-11.797 3.156c-.047.031-.75.156-1.719.219-.984.109-2.25.141-3.672.141-3.016 0-6.703-.188-10.188-.422-3.531-.203-6.813-.438-9.609-.531-11.984-.25-22.297-.438-31-1.016-6.531-.391-12.141-1.016-16.844-1.938-3.531-.703-6.531-1.547-9.078-2.578-3.844-1.531-6.609-3.344-9.063-5.797-2.438-2.484-4.625-5.766-6.625-10.578-1.734-4.156-2.219-7.25-2.219-9.422 0-2.234.453-3.641 1.063-4.891a10.98 10.98 0 011.766-2.469c1.031-1.063 2.313-1.969 3.328-2.531.5-.281.922-.5 1.281-.672.172-.078.328-.141.578-.266.141-.063.266-.125.625-.313.188-.094.406-.219.859-.5.234-.156.531-.344.984-.719.219-.188.5-.406.828-.75.344-.344.75-.781 1.25-1.484l.047-.078c5.484-8.094 10.422-16.531 15.469-24.656 7.531-12.188 15.328-23.594 24.828-32.188 4.766-4.313 9.922-7.938 15.797-10.781 5.891-2.844 12.516-4.938 20.344-6l8.547-1.172.781-8.578c.078-.891.203-1.625.406-2.281.406-1.563 1.469-3.969 3.016-6.375 2.297-3.672 5.688-7.469 8.984-10 1.641-1.25 3.234-2.203 4.547-2.75 1.297-.563 2.281-.719 2.75-.688l.422.016v.016c2.734.531 4.578 1.313 5.859 2.078.969.594 1.609 1.172 2.172 1.859.828.969 1.5 2.219 2.031 4.078.516 1.828.828 4.281.828 7.203.016 4.656-.781 10.469-2.047 16.813l-.219 1.031v1.078c.031 1.891.391 2.906.625 3.672.266.719.5 1.188.703 1.563.375.688.641 1.063.875 1.375.422.594.703.938 1.016 1.313a91.3 91.3 0 001.797 1.969c1.156 1.219 2.547 2.656 4.078 4.25 2.266 2.344 4.813 5.031 6.922 7.469a83.424 83.424 0 012.75 3.313c.719.953 1.234 1.75 1.359 1.969l.906 1.641 1.375 1.234c7.547 6.719 15.875 14.688 22.281 20.953 3.188 3.141 5.906 5.828 7.828 7.766.969.969 1.719 1.719 2.234 2.25.25.25.453.469.578.594l.203.188.219.219.25.25a20.633 20.633 0 0013.781 5.297c3.281 0 6.594-.797 9.609-2.391h.016a20.57 20.57 0 0010.938-18.188c0-.563-.063-1.125-.109-1.688h.016l-2.656-76.078c.016-2.359.156-23.391.156-30.766.016-34.5 13.953-65.609 36.547-88.219 22.609-22.594 53.734-36.547 88.234-36.563 34.469.016 65.609 13.969 88.219 36.563 22.594 22.609 36.531 53.719 36.531 88.219.003 31.703-11.762 60.515-31.2 82.531z" fill="#4b4b4b"/><path class="st0" d="M88.828 257.375c-6 0-10.844 4.844-10.844 10.828s4.844 10.828 10.844 10.828c5.969 0 10.828-4.844 10.828-10.828s-4.859-10.828-10.828-10.828z" fill="#4b4b4b"/></svg>